<mxfile host="Electron" modified="2023-11-29T12:14:00.086Z" agent="Mozilla/5.0 (Windows NT 10.0; Win64; x64) AppleWebKit/537.36 (KHTML, like Gecko) draw.io/22.1.2 Chrome/114.0.5735.289 Electron/25.9.4 Safari/537.36" etag="MTOux6UlwROL0CVSUS85" version="22.1.2" type="device">
  <diagram name="Page-1" id="-2RSWB7tETgU4Bn30kH4">
    <mxGraphModel dx="690" dy="445" grid="1" gridSize="10" guides="1" tooltips="1" connect="1" arrows="1" fold="1" page="1" pageScale="1" pageWidth="1800" pageHeight="1200" math="0" shadow="0">
      <root>
        <mxCell id="0" />
        <mxCell id="1" parent="0" />
        <mxCell id="deFUMr1GFnWDVAyjnnOe-1" value="Event Hub" style="rounded=0;whiteSpace=wrap;html=1;" parent="1" vertex="1">
          <mxGeometry x="230" y="90" width="100" height="270" as="geometry" />
        </mxCell>
        <mxCell id="deFUMr1GFnWDVAyjnnOe-2" value="Data Sources" style="rounded=0;whiteSpace=wrap;html=1;" parent="1" vertex="1">
          <mxGeometry x="110" y="90" width="100" height="270" as="geometry" />
        </mxCell>
        <mxCell id="deFUMr1GFnWDVAyjnnOe-3" value="Customer 360 including Joiurney" style="rounded=0;whiteSpace=wrap;html=1;" parent="1" vertex="1">
          <mxGeometry x="350" y="160" width="110" height="120" as="geometry" />
        </mxCell>
        <mxCell id="deFUMr1GFnWDVAyjnnOe-4" value="Business Intelligence" style="rounded=0;whiteSpace=wrap;html=1;" parent="1" vertex="1">
          <mxGeometry x="350" y="10" width="100" height="120" as="geometry" />
        </mxCell>
        <mxCell id="deFUMr1GFnWDVAyjnnOe-6" value="Personalization" style="rounded=0;whiteSpace=wrap;html=1;" parent="1" vertex="1">
          <mxGeometry x="350" y="290" width="100" height="60" as="geometry" />
        </mxCell>
        <mxCell id="deFUMr1GFnWDVAyjnnOe-7" value="Segmentation &amp;amp; ML" style="rounded=0;whiteSpace=wrap;html=1;" parent="1" vertex="1">
          <mxGeometry x="350" y="360" width="100" height="60" as="geometry" />
        </mxCell>
        <mxCell id="deFUMr1GFnWDVAyjnnOe-8" value="data sharing" style="rounded=0;whiteSpace=wrap;html=1;" parent="1" vertex="1">
          <mxGeometry x="580" y="90" width="100" height="120" as="geometry" />
        </mxCell>
        <mxCell id="deFUMr1GFnWDVAyjnnOe-10" value="" style="endArrow=classic;html=1;rounded=0;exitX=1.028;exitY=0.459;exitDx=0;exitDy=0;exitPerimeter=0;entryX=-0.029;entryY=0.461;entryDx=0;entryDy=0;entryPerimeter=0;" parent="1" source="deFUMr1GFnWDVAyjnnOe-2" target="deFUMr1GFnWDVAyjnnOe-1" edge="1">
          <mxGeometry width="50" height="50" relative="1" as="geometry">
            <mxPoint x="290" y="430" as="sourcePoint" />
            <mxPoint x="340" y="380" as="targetPoint" />
          </mxGeometry>
        </mxCell>
        <mxCell id="deFUMr1GFnWDVAyjnnOe-12" value="Amazon Quicksight" style="rounded=0;whiteSpace=wrap;html=1;" parent="1" vertex="1">
          <mxGeometry x="430" width="120" height="60" as="geometry" />
        </mxCell>
        <mxCell id="deFUMr1GFnWDVAyjnnOe-13" value="S3&lt;br&gt;Lake Formation&lt;br&gt;Neptune??&lt;br&gt;Id resolution&lt;br&gt;- EMR deterministic&lt;br&gt;- SAGEmaker probalistic&lt;br&gt;- or entity resolver" style="rounded=0;whiteSpace=wrap;html=1;" parent="1" vertex="1">
          <mxGeometry x="440" y="170" width="120" height="130" as="geometry" />
        </mxCell>
        <mxCell id="deFUMr1GFnWDVAyjnnOe-14" value="API Gateway&lt;br&gt;Clean Room" style="rounded=0;whiteSpace=wrap;html=1;" parent="1" vertex="1">
          <mxGeometry x="600" y="180" width="120" height="60" as="geometry" />
        </mxCell>
        <mxCell id="deFUMr1GFnWDVAyjnnOe-15" value="Amazon Personalize" style="rounded=0;whiteSpace=wrap;html=1;" parent="1" vertex="1">
          <mxGeometry x="440" y="330" width="120" height="20" as="geometry" />
        </mxCell>
        <mxCell id="deFUMr1GFnWDVAyjnnOe-16" value="Sentiment analysis" style="rounded=0;whiteSpace=wrap;html=1;" parent="1" vertex="1">
          <mxGeometry x="360" y="470" width="120" height="60" as="geometry" />
        </mxCell>
        <mxCell id="deFUMr1GFnWDVAyjnnOe-17" value="&lt;div style=&quot;text-align: left;&quot;&gt;&lt;span style=&quot;background-color: initial;&quot;&gt;1.&amp;nbsp;&lt;/span&gt;&lt;span style=&quot;background-color: initial;&quot;&gt;How data is ingested/users of the system&lt;/span&gt;&lt;/div&gt;&lt;div style=&quot;text-align: left;&quot;&gt;&lt;span style=&quot;background-color: initial;&quot;&gt;2. Components inside the system&lt;/span&gt;&lt;/div&gt;&lt;div style=&quot;text-align: left;&quot;&gt;3.&amp;nbsp;Data flow inside the system&lt;span style=&quot;background-color: initial;&quot;&gt;&lt;br&gt;4. Output&lt;br&gt;5. High level functionality&lt;br&gt;6. Deployment models&lt;/span&gt;&lt;/div&gt;" style="text;html=1;strokeColor=none;fillColor=none;align=center;verticalAlign=middle;whiteSpace=wrap;rounded=0;" parent="1" vertex="1">
          <mxGeometry x="580" y="280" width="230" height="100" as="geometry" />
        </mxCell>
        <mxCell id="VCzcCiZq-xhA495FX2Vx-1" value="" style="endArrow=classic;html=1;rounded=0;" edge="1" parent="1">
          <mxGeometry relative="1" as="geometry">
            <mxPoint x="310" y="230" as="sourcePoint" />
            <mxPoint x="360" y="230" as="targetPoint" />
          </mxGeometry>
        </mxCell>
        <mxCell id="VCzcCiZq-xhA495FX2Vx-3" value="" style="endArrow=classic;html=1;rounded=0;" edge="1" parent="1">
          <mxGeometry width="50" height="50" relative="1" as="geometry">
            <mxPoint x="320" y="100" as="sourcePoint" />
            <mxPoint x="370" y="50" as="targetPoint" />
          </mxGeometry>
        </mxCell>
        <mxCell id="VCzcCiZq-xhA495FX2Vx-4" value="" style="endArrow=classic;html=1;rounded=0;" edge="1" parent="1" target="deFUMr1GFnWDVAyjnnOe-4">
          <mxGeometry width="50" height="50" relative="1" as="geometry">
            <mxPoint x="400" y="160" as="sourcePoint" />
            <mxPoint x="450" y="110" as="targetPoint" />
          </mxGeometry>
        </mxCell>
        <mxCell id="VCzcCiZq-xhA495FX2Vx-5" value="" style="endArrow=classic;html=1;rounded=0;exitX=0.5;exitY=1;exitDx=0;exitDy=0;" edge="1" parent="1" source="deFUMr1GFnWDVAyjnnOe-3" target="deFUMr1GFnWDVAyjnnOe-6">
          <mxGeometry width="50" height="50" relative="1" as="geometry">
            <mxPoint x="560" y="320" as="sourcePoint" />
            <mxPoint x="610" y="270" as="targetPoint" />
          </mxGeometry>
        </mxCell>
        <mxCell id="VCzcCiZq-xhA495FX2Vx-6" value="" style="endArrow=classic;html=1;rounded=0;exitX=0.599;exitY=0.991;exitDx=0;exitDy=0;exitPerimeter=0;entryX=0.75;entryY=0;entryDx=0;entryDy=0;" edge="1" parent="1" source="deFUMr1GFnWDVAyjnnOe-3" target="deFUMr1GFnWDVAyjnnOe-7">
          <mxGeometry width="50" height="50" relative="1" as="geometry">
            <mxPoint x="560" y="420" as="sourcePoint" />
            <mxPoint x="610" y="370" as="targetPoint" />
          </mxGeometry>
        </mxCell>
        <mxCell id="VCzcCiZq-xhA495FX2Vx-7" value="" style="endArrow=classic;html=1;rounded=0;exitX=0.25;exitY=0;exitDx=0;exitDy=0;entryX=0.25;entryY=1;entryDx=0;entryDy=0;" edge="1" parent="1" source="deFUMr1GFnWDVAyjnnOe-7" target="deFUMr1GFnWDVAyjnnOe-3">
          <mxGeometry width="50" height="50" relative="1" as="geometry">
            <mxPoint x="290" y="440" as="sourcePoint" />
            <mxPoint x="340" y="390" as="targetPoint" />
          </mxGeometry>
        </mxCell>
        <mxCell id="VCzcCiZq-xhA495FX2Vx-9" value="Sagemaker&lt;br&gt;Amazon Redshift" style="rounded=0;whiteSpace=wrap;html=1;" vertex="1" parent="1">
          <mxGeometry x="440" y="400" width="120" height="60" as="geometry" />
        </mxCell>
      </root>
    </mxGraphModel>
  </diagram>
</mxfile>
